<?xml version="1.0" encoding="iso-8859-1"?>
<svg
  version="1.1"
  id="Layer_1"
  xmlns="http://www.w3.org/2000/svg"
  xmlns:xlink="http://www.w3.org/1999/xlink"
  x="0px"
  y="0px"
  viewBox="0 0 511.999 511.999"
  style="enable-background: new 0 0 511.999 511.999"
  xml:space="preserve"
>
  <rect
    x="291.152"
    y="104.804"
    transform="matrix(0.7071 -0.7071 0.7071 0.7071 -19.3806 287.5859)"
    style="fill: #a5f2e5"
    width="92.608"
    height="124.767"
  />
  <path
    d="M509.528,249.865L332.058,72.393c-1.587-1.585-3.737-2.477-5.981-2.477s-4.393,0.891-5.981,2.477l-77.442,77.442  c-3.303,3.303-3.303,8.657,0,11.959l94.205,94.205l-94.205,94.205c-3.303,3.303-3.303,8.657,0,11.959l77.442,77.442  c1.587,1.585,3.737,2.477,5.981,2.477s4.393-0.891,5.981-2.477l43.309-43.309c3.303-3.303,3.303-8.658,0-11.959l0,0  c-3.304-3.303-8.657-3.303-11.96,0l-37.328,37.329l-65.482-65.482l165.509-165.512l65.482,65.482l-85.331,85.331  c-3.303,3.303-3.303,8.657,0,11.959l0,0c3.304,3.303,8.657,3.303,11.96,0l91.31-91.31c1.691-1.691,2.51-3.919,2.469-6.135  C512.038,253.784,511.219,251.555,509.528,249.865z M414.302,178.558L348.82,244.04l-88.224-88.224l65.482-65.482L414.302,178.558z"
  />
  <path
    style="fill: #60a5fa"
    d="M406.257,341.486l85.331-85.331l-65.482-65.482L260.596,356.185l65.482,65.482l37.328-37.329  c3.304-3.303,8.657-3.303,11.96,0l30.892-30.892l0,0C402.956,350.143,402.956,344.788,406.257,341.486z"
  />
  <rect
    x="34.893"
    y="120.878"
    transform="matrix(-0.7071 -0.7071 0.7071 -0.7071 47.8453 354.1825)"
    style="fill: #a5f2e5"
    width="124.767"
    height="92.608"
  />
  <path
    style="fill: #60a5fa"
    d="M166.079,341.486l85.332-85.331l-65.482-65.482L20.417,356.185l65.482,65.482l37.329-37.329  c3.305-3.303,8.658-3.302,11.96,0l30.892-30.89l0,0C162.777,350.143,162.777,344.788,166.079,341.486z"
  />
  <path
    d="M271.828,256.156c0-0.051-0.007-0.099-0.008-0.15c0.042-2.218-0.777-4.448-2.469-6.141L91.879,72.393  c-1.587-1.585-3.737-2.477-5.981-2.477s-4.393,0.891-5.981,2.477L2.477,149.835c-3.303,3.303-3.303,8.657,0,11.959l94.205,94.205  L2.477,350.205c-3.303,3.303-3.303,8.657,0,11.959l77.442,77.442c1.652,1.652,3.816,2.477,5.981,2.477  c2.164,0,4.329-0.825,5.981-2.477l43.31-43.309c3.303-3.303,3.303-8.657,0-11.959l0,0c-3.303-3.302-8.657-3.303-11.96,0  l-37.329,37.329l-65.484-65.483l165.512-165.512l65.482,65.482l-85.332,85.331c-3.303,3.303-3.303,8.657,0,11.959l0,0  c3.303,3.302,8.655,3.303,11.96,0l91.311-91.31C270.937,260.549,271.828,258.398,271.828,256.156z M85.899,90.333l88.225,88.225  l-65.482,65.482l-88.225-88.224L85.899,90.333z"
  />
  <g></g>
  <g></g>
  <g></g>
  <g></g>
  <g></g>
  <g></g>
  <g></g>
  <g></g>
  <g></g>
  <g></g>
  <g></g>
  <g></g>
  <g></g>
  <g></g>
  <g></g>
</svg>
